<svg xmlns="http://www.w3.org/2000/svg" xmlns:xlink="http://www.w3.org/1999/xlink" xml:space="preserve" version="1.1" style="shape-rendering:geometricPrecision;text-rendering:geometricPrecision;image-rendering:optimizeQuality;" viewBox="0 0 60000 75000" x="0px" y="0px" fill-rule="evenodd" clip-rule="evenodd"><defs><style type="text/css">
   
    .fil0 {fill:#FF001C;fill-rule:nonzero}
   
  </style></defs><g><path class="fil0" d="M3667 13062l52917 0c138,0 250,112 250,250l0 33126c0,138 -112,250 -250,250l-52484 0c-86,149 -248,250 -433,250 -276,0 -500,-224 -500,-500 0,-396 13,-821 39,-1273 39,-678 110,-1389 211,-2125l0 -29728c0,-138 112,-250 250,-250zm40231 23557c-232,7 -445,-150 -501,-384 -208,-877 -593,-1454 -1068,-1782 -179,-124 -373,-213 -577,-271l0 4308 2146 0 0 -1870zm-2646 -2518c-79,-4 -159,-3 -239,1 -495,26 -1011,198 -1492,488 -838,505 -1553,1359 -1860,2418 -142,490 -219,986 -236,1480l3827 0 0 -4387zm-3824 4887c62,1334 551,2629 1352,3710 885,1193 2148,2123 3638,2555 472,137 967,224 1480,253l0 -6518 -6470 0zm6970 6507c3402,-273 6022,-1470 7865,-3408 1932,-2031 3030,-4889 3299,-8365l-11165 0 0 11773zm11193 -12273c13,-430 10,-855 -7,-1273 -212,-5181 -2655,-9468 -6066,-12505 -3419,-3044 -7803,-4829 -11889,-4999 -339,-14 -676,-17 -1010,-9l0 18786 3592 0c250,-64 501,-104 751,-117 365,-19 726,18 1071,117l13558 0zm-19472 -18790c-564,-29 -1131,-43 -1699,-43 -10299,0 -17688,4949 -22581,11270 -4913,6345 -7319,14060 -7637,19560 -19,323 -30,646 -34,968l31951 0 0 -31755zm-32203 25862c1094,-4867 3415,-10442 7134,-15244 4521,-5840 11103,-10548 20051,-11489l-27184 0 0 26733zm35114 -26733c3902,475 7937,2277 11151,5137 3070,2733 5396,6432 6152,10865l0 -16002 -17303 0zm17303 22068c-493,2891 -1607,5316 -3347,7145 -1604,1686 -3730,2857 -6379,3412l9727 0 0 -10557zm-14268 10557c-1674,-504 -3092,-1554 -4086,-2896 -647,-873 -1115,-1869 -1360,-2921l0 5816 5446 0zm-5446 -9138c25,-106 54,-213 84,-319 381,-1314 1265,-2372 2302,-2997l19 -11 -2405 0 0 3327zm6402 -3327c337,259 635,602 877,1035l0 -1035 -877 0z"/></g><text x="0" y="60015" fill="#000000" font-size="5px" font-weight="bold" font-family="'Helvetica Neue', Helvetica, Arial-Unicode, Arial, Sans-serif">Created by Olena Panasovska</text><text x="0" y="60020" fill="#000000" font-size="5px" font-weight="bold" font-family="'Helvetica Neue', Helvetica, Arial-Unicode, Arial, Sans-serif">from the Noun Project</text></svg>